<svg width="24" height="25" viewBox="0 0 24 25" fill="none" xmlns="http://www.w3.org/2000/svg">
    <path d="M22.6676 8.80078H15.7342V1.86745C15.7342 1.22745 15.3076 0.800781 14.6676 0.800781H9.33425C8.69425 0.800781 8.26758 1.22745 8.26758 1.86745V8.80078H1.33424C0.694245 8.80078 0.267578 9.22745 0.267578 9.86745V15.2008C0.267578 15.8408 0.694245 16.2674 1.33424 16.2674H8.26758V23.2008C8.26758 23.8408 8.69425 24.2674 9.33425 24.2674H14.6676C15.3076 24.2674 15.7342 23.8408 15.7342 23.2008V16.2674H22.6676C23.3076 16.2674 23.7342 15.8408 23.7342 15.2008V9.86745C23.7342 9.22745 23.3076 8.80078 22.6676 8.80078Z" fill="#156DF1"/>
</svg>
