<svg width="48" height="48" viewBox="0 0 48 48" fill="none" xmlns="http://www.w3.org/2000/svg">
    <path d="M45.3332 16.6H31.4665V2.73331C31.4665 1.45331 30.6132 0.599976 29.3332 0.599976H18.6665C17.3865 0.599976 16.5332 1.45331 16.5332 2.73331V16.6H2.66654C1.38654 16.6 0.533203 17.4533 0.533203 18.7333V29.4C0.533203 30.68 1.38654 31.5333 2.66654 31.5333H16.5332V45.4C16.5332 46.68 17.3865 47.5333 18.6665 47.5333H29.3332C30.6132 47.5333 31.4665 46.68 31.4665 45.4V31.5333H45.3332C46.6132 31.5333 47.4665 30.68 47.4665 29.4V18.7333C47.4665 17.4533 46.6132 16.6 45.3332 16.6Z" fill="#156DF1"/>
</svg>