<svg width="24" height="24" viewBox="0 0 38 38" fill="none" 
  xmlns="http://www.w3.org/2000/svg">
  <path d="M33.4219 23.0234C33.792 22.6533 34.024 22.1561 34.0848 21.6092L34.1069 21.5429V21.4987L34.0406 17.013H33.9964C34.0489 15.701 33.3169 14.5492 32.2065 14.0299C32.1982 14.0272 32.1927 14.0106 32.1844 14.0078C29.8698 12.8919 25.025 11.1131 19.0367 11.1131C13.0263 11.1131 8.19805 12.9969 5.8889 14.0078L5.86681 14.0299C4.72052 14.6017 3.99408 15.7369 3.90017 16.9688V21.4324C3.90017 22.6036 4.91663 23.6201 6.08778 23.6201H11.833L11.8993 23.6422C13.0705 23.6422 14.109 22.6036 14.109 21.4324V18.604C14.8658 18.3389 16.7137 17.7505 18.9925 17.698C21.2547 17.6456 23.1163 18.325 23.8317 18.604V21.4324C23.8317 22.6202 24.8095 23.6201 26.0193 23.5759V23.6201H26.1519L31.8972 23.7084H31.9414L32.0077 23.6864C32.5546 23.6256 33.0517 23.3936 33.4219 23.0234ZM32.0077 21.6092C31.9552 21.6617 31.8778 21.6893 31.7867 21.6976L26.0635 21.6313H25.931C25.942 21.6313 25.8205 21.6037 25.8205 21.4324L25.8205 17.8969L25.8426 17.2561L25.246 16.9688C25.246 16.9688 22.2601 15.6071 18.9262 15.6872L18.6389 15.7093C15.4956 15.8529 12.739 16.9688 12.739 16.9688L12.0982 17.2119V21.4104C12.0982 21.6534 12.1203 21.6313 11.8772 21.6313H6.08778C5.84471 21.6313 5.8889 21.6755 5.8889 21.4324V17.1014C5.93586 16.4965 6.22312 16.0932 6.77279 15.8198C9.00459 14.8475 13.4848 13.1018 19.0367 13.1018C24.6328 13.1018 29.2676 14.8144 31.3447 15.8198C31.7397 15.9993 32.0878 16.502 32.0519 16.9688V17.0572L32.096 21.3883C32.0878 21.4794 32.0601 21.5567 32.0077 21.6092Z" fill="white"/>
</svg>
