<svg width="24" height="24" viewBox="0 0 24 24" fill="none" 
  xmlns="http://www.w3.org/2000/svg">
  <path fill-rule="evenodd" clip-rule="evenodd" d="M20.9142 5.41421L17.1213 9.20711H18.7071V12.2071C18.7071 14.0636 17.9696 15.8441 16.6569 17.1569C15.5821 18.2316 14.1939 18.9208 12.7071 19.1353V22.2071H10.7071V19.1353C9.78813 19.0027 8.90681 18.6888 8.1139 18.2145L4.41421 21.9142L3 20.5L6.55458 16.9454C5.3689 15.6562 4.70711 13.9658 4.70711 12.2071V9.20711H6.70711V12.2071C6.70711 13.4352 7.15893 14.6168 7.97053 15.5295L19.5 4L20.9142 5.41421ZM9.59113 16.7373L16.7071 9.62132V12.2071C16.7071 13.5332 16.1803 14.805 15.2426 15.7426C14.305 16.6803 13.0332 17.2071 11.7071 17.2071C10.9689 17.2071 10.2474 17.0438 9.59113 16.7373ZM11.7071 4.20711C12.8273 4.20711 13.8041 4.82109 14.3194 5.73088L8.70711 11.3431V7.20711C8.70711 5.55025 10.0503 4.20711 11.7071 4.20711Z" fill="white"/>
</svg>
